<svg width="23" height="24" viewBox="0 0 23 24" fill="none" xmlns="http://www.w3.org/2000/svg">
<g clip-path="url(#clip0_3617_12004)">
<path d="M15.0672 15.0672C14.1255 16.0089 12.9001 16.512 11.6616 16.5765C11.5842 16.5765 11.4939 16.5894 11.4165 16.5894C11.3391 16.5894 11.2488 16.5894 11.1715 16.5765C9.84271 16.5378 8.527 16.1766 7.34011 15.5058C6.70799 15.1446 6.11459 14.706 5.5857 14.1642C4.773 13.3514 4.16676 12.4226 3.76688 11.4294C2.82517 9.10743 2.99281 6.46288 4.2442 4.25702C1.7416 5.66312 0.0644531 8.3463 0.0644531 11.4165C0.0644531 14.4867 1.74142 17.1699 4.24402 18.5889C5.44375 19.2725 6.83691 19.6725 8.32045 19.6725C9.41696 19.6725 10.4618 19.4532 11.4164 19.0662C13.1451 18.3696 14.5899 17.1054 15.4928 15.4929C16.1379 14.3577 16.5248 13.0548 16.5635 11.6616C16.5119 12.9129 16.0088 14.1255 15.0671 15.0672" fill="#4FC3F7"/>
<path d="M17.2473 2.48967C14.0223 -0.735163 8.79793 -0.735163 5.57283 2.48967C5.031 3.0315 4.5924 3.62499 4.23124 4.24417C2.97994 6.45012 2.82514 9.09458 3.76685 11.4165C4.16673 12.4099 4.77298 13.3516 5.58568 14.1513C6.12751 14.6932 6.72091 15.1318 7.34009 15.4929C8.52688 16.1638 9.84269 16.5249 11.1714 16.5637C9.93307 16.4992 8.7204 15.996 7.76584 15.0543C6.75963 14.0611 6.25652 12.7324 6.25652 11.4166V11.4037C6.25645 9.97366 6.62997 8.56845 7.34009 7.32723C7.70134 6.6952 8.13994 6.1018 8.68168 5.57291C9.49447 4.76012 10.4232 4.15388 11.4165 3.754C13.7385 2.81229 16.3959 2.98002 18.6018 4.23132C18.2406 3.61214 17.789 3.01856 17.2473 2.48967Z" fill="#4285F4"/>
<path opacity="0.2" d="M11.4165 3.63781C10.4232 4.03769 9.48153 4.64394 8.68168 5.45664C8.13994 5.99847 7.70134 6.59186 7.34009 7.21105C6.61768 8.46235 6.25652 9.86844 6.25652 11.2745V11.339C6.26937 9.95882 6.63062 8.56557 7.34009 7.32721C7.70134 6.69509 8.13994 6.10169 8.68168 5.5728C9.49447 4.76001 10.4232 4.15377 11.4165 3.75389C13.7385 2.81218 16.3959 2.97991 18.6018 4.23121L18.4857 4.0376C16.3056 2.8509 13.6998 2.70895 11.4165 3.63781ZM5.58568 14.0222C4.77298 13.2095 4.16674 12.2808 3.76685 11.2875C3.36688 10.2942 3.16052 9.24926 3.16052 8.20441C3.14758 9.30092 3.3411 10.3845 3.76685 11.4165C4.16674 12.4098 4.77298 13.3515 5.58568 14.1512C6.12751 14.6931 6.72091 15.1317 7.34009 15.4928C8.52688 16.1637 9.84269 16.5248 11.1714 16.5636C10.6296 16.5378 10.0878 16.4217 9.57173 16.2281C8.79784 16.0476 8.04965 15.7638 7.34009 15.3639C6.70797 15.0156 6.11457 14.5641 5.58568 14.0222Z" fill="#1A237E"/>
<path d="M20.3432 5.58566C19.8015 5.04392 19.2081 4.60531 18.5888 4.24406C16.383 2.99276 13.7255 2.82512 11.4035 3.76674C10.4103 4.16671 9.46854 4.77296 8.66878 5.58566C8.12695 6.12757 7.68835 6.72088 7.32719 7.34006C6.62545 8.57941 6.25657 9.97934 6.25647 11.4036C6.25647 10.0878 6.75958 8.77195 7.76579 7.76582C8.70741 6.82411 9.93293 6.321 11.1713 6.2565C11.339 6.24356 11.5068 6.24356 11.6616 6.2565C12.9902 6.29522 14.306 6.65638 15.4928 7.32713C16.1249 7.68847 16.7183 8.12698 17.2472 8.66881C18.06 9.48151 18.6663 10.4103 19.0661 11.4036C20.0078 13.7256 19.8401 16.3829 18.5888 18.5759C19.2209 18.2147 19.8143 17.7761 20.3432 17.2344C23.5682 14.0352 23.5682 8.79782 20.3432 5.58566Z" fill="#FFC107"/>
<path opacity="0.2" d="M6.25647 11.5455C6.25647 12.8613 6.75958 14.19 7.76579 15.1962C8.70741 16.1379 9.93293 16.641 11.1713 16.7055C11.2487 16.7055 11.339 16.7184 11.4165 16.7184C11.4938 16.7184 11.5842 16.7184 11.6616 16.7055C12.8999 16.641 14.1126 16.1379 15.0671 15.1962C15.9314 14.3319 16.4217 13.2354 16.5507 12.1131C16.5635 11.9713 16.5765 11.8164 16.5765 11.6745C16.512 12.9129 16.0089 14.1255 15.0671 15.0672C14.1254 16.0089 12.9 16.512 11.6616 16.5765C11.5841 16.5765 11.4938 16.5894 11.4165 16.5894C11.339 16.5894 11.2487 16.5894 11.1714 16.5765C9.93302 16.512 8.72035 16.0089 7.76579 15.0672C6.77243 14.0739 6.28225 12.7839 6.25647 11.481V11.5455Z" fill="white"/>
<path opacity="0.2" d="M19.0791 11.2875C18.6791 10.2942 18.0729 9.35251 17.2602 8.55266C16.7183 8.01092 16.1249 7.57232 15.5057 7.21107C14.319 6.54032 13.0031 6.17907 11.6745 6.14043C11.5113 6.12759 11.3474 6.12759 11.1842 6.14043C9.94587 6.20494 8.73329 6.69511 7.77873 7.64967C6.75958 8.64304 6.25647 9.95875 6.25647 11.2747V11.352C6.26932 10.0491 6.77243 8.75911 7.76579 7.76583C8.70741 6.82412 9.93293 6.32101 11.1713 6.25651C11.339 6.24357 11.5068 6.24357 11.6616 6.25651C12.9902 6.29523 14.306 6.65639 15.4928 7.32714C16.1249 7.68848 16.7183 8.12699 17.2472 8.66882C18.06 9.48152 18.6663 10.4103 19.0661 11.4036C19.466 12.3969 19.6595 13.4418 19.6595 14.4867C19.6854 13.4031 19.4918 12.3195 19.0791 11.2875ZM20.3432 17.1182C19.8401 17.6214 19.2726 18.047 18.6791 18.3954C18.6405 18.4598 18.6147 18.5243 18.576 18.5889C19.2081 18.2277 19.8015 17.7891 20.3304 17.2473C21.9558 15.6219 22.7685 13.4804 22.7426 11.3392C22.7555 13.4418 21.9428 15.5316 20.3432 17.1182Z" fill="#BF360C"/>
<path opacity="0.2" d="M17.2474 8.8107C18.0601 9.62349 18.6663 10.5523 19.0662 11.5455C19.4662 12.5388 19.6596 13.5838 19.6596 14.6286C19.6725 13.5321 19.479 12.4485 19.0663 11.4165C18.6663 10.4233 18.0601 9.48154 17.2474 8.68169C16.7055 8.13995 16.1121 7.70135 15.493 7.3401C14.3062 6.66935 12.9904 6.3081 11.6616 6.26947C12.2035 6.29525 12.7453 6.41133 13.2613 6.60485C14.0352 6.78543 14.7834 7.06923 15.493 7.46911C16.1251 7.81743 16.7185 8.26896 17.2474 8.8107Z" fill="#1A237E"/>
<path opacity="0.2" d="M20.3432 5.58568C19.8015 5.04394 19.2081 4.60533 18.5888 4.24408C18.2276 3.61205 17.789 3.01857 17.2472 2.48968C14.0222 -0.735247 8.79778 -0.735247 5.57277 2.48968C5.03094 3.0315 4.59233 3.6249 4.23117 4.24408C1.74142 5.66312 0.0644531 8.3463 0.0644531 11.4165V11.4811C0.0903267 8.47531 1.71564 5.85672 4.12795 4.43769C3.48289 5.65027 3.16045 6.99186 3.16045 8.33345C3.18633 6.96608 3.53455 5.5987 4.23109 4.37318C4.59242 3.74107 5.03094 3.14767 5.57277 2.61878C8.79778 -0.606235 14.0222 -0.606235 17.2472 2.61878C17.7245 3.0961 18.1373 3.62499 18.4727 4.1926C16.2926 2.99287 13.6868 2.85101 11.4035 3.77979C10.4102 4.17967 9.46853 4.786 8.66877 5.5987C8.12694 6.14053 7.68833 6.73393 7.32717 7.35311C6.61761 8.59147 6.25645 9.99757 6.25645 11.4037C6.25645 11.2359 6.2693 11.0554 6.28233 10.8877C6.37253 9.70092 6.73378 8.52697 7.34002 7.45634C7.70127 6.82422 8.13987 6.23082 8.68161 5.70193C9.4944 4.88914 10.4232 4.28289 11.4165 3.88301C13.7385 2.9413 16.3958 3.10904 18.6017 4.36034C19.2339 4.7215 19.8272 5.1601 20.3561 5.70193C21.9558 7.30145 22.7555 9.37839 22.7687 11.4811C22.7813 9.33967 21.9815 7.21107 20.3432 5.58568Z" fill="white"/>
<g filter="url(#filter0_d_3617_12004)">
<path d="M19.0793 11.4165C18.6794 10.4233 18.0732 9.48154 17.2605 8.68169C16.7187 8.13995 16.1253 7.70135 15.5061 7.3401C14.3193 6.66935 13.0035 6.3081 11.6748 6.26947C12.9131 6.33389 14.1258 6.82415 15.0803 7.7787C16.0091 8.70748 16.5123 9.93299 16.5767 11.1585C16.5767 11.2488 16.5897 11.3262 16.5897 11.4165C16.5897 11.5068 16.5897 11.5843 16.5767 11.6746C16.5381 13.0677 16.1511 14.3706 15.5061 15.5058C14.5902 17.1054 13.1583 18.3825 11.4297 19.079C10.475 19.4661 9.43017 19.6854 8.33376 19.6854C6.85022 19.6854 5.45697 19.2855 4.25732 18.6018C4.61848 19.2339 5.05709 19.8273 5.59892 20.3562C8.82384 23.5812 14.0483 23.5812 17.2734 20.3562C17.8152 19.8144 18.2538 19.221 18.6149 18.6018C19.8533 16.396 20.0082 13.7385 19.0793 11.4165" fill="black"/>
</g>
<path d="M19.0791 11.4165C18.6792 10.4233 18.0728 9.48154 17.2601 8.68169C16.7183 8.13995 16.1249 7.70135 15.5057 7.3401C14.3189 6.66935 13.0031 6.3081 11.6745 6.26947C12.9128 6.33389 14.1254 6.82415 15.08 7.7787C16.0088 8.70748 16.5119 9.93299 16.5765 11.1585C16.5765 11.2488 16.5893 11.3262 16.5893 11.4165C16.5893 11.5068 16.5893 11.5843 16.5765 11.6746C16.5377 13.0677 16.1507 14.3706 15.5058 15.5058C14.5898 17.1054 13.1579 18.3825 11.4294 19.079C10.4747 19.4661 9.42981 19.6854 8.33339 19.6854C6.84985 19.6854 5.45669 19.2855 4.25696 18.6018C4.61812 19.2339 5.05672 19.8273 5.59855 20.3562C8.82356 23.5812 14.0481 23.5812 17.2731 20.3562C17.8148 19.8144 18.2534 19.221 18.6147 18.6018C19.853 16.396 20.0078 13.7385 19.0791 11.4165Z" fill="#3367D6"/>
<path opacity="0.2" d="M11.4165 19.1952C13.1451 18.4986 14.577 17.2344 15.4929 15.622C16.1378 14.4867 16.5248 13.1838 16.5635 11.7906C16.5635 11.7003 16.5765 11.6229 16.5765 11.5326V11.4681V11.6617C16.5377 13.0548 16.1507 14.3577 15.5058 15.4929C14.5898 17.0925 13.1579 18.3696 11.4294 19.0662C10.4747 19.4532 9.42981 19.6725 8.33339 19.6725C6.84985 19.6725 5.45669 19.2726 4.25696 18.5889L4.37303 18.7824C5.5902 19.452 6.95705 19.8026 8.34624 19.8015C9.41687 19.8015 10.4618 19.5822 11.4165 19.1952Z" fill="#1A237E"/>
<path opacity="0.2" d="M4.34725 18.6533C5.56442 19.3229 6.93127 19.6735 8.32045 19.6724C9.41696 19.6724 10.4618 19.4531 11.4164 19.0661C13.1451 18.3695 14.5899 17.1053 15.4928 15.4929C16.1379 14.3576 16.5248 13.0547 16.5635 11.6615C16.5635 11.7647 16.5507 11.8679 16.5377 11.9711C16.4345 13.1966 16.0733 14.3447 15.4928 15.3639C14.577 16.9763 13.1451 18.2406 11.4164 18.9371C10.4618 19.3241 9.41696 19.5434 8.32045 19.5434C6.83691 19.5434 5.44375 19.1435 4.24402 18.4599C1.76729 17.0538 0.0902375 14.3964 0.0644531 11.3519V11.4164C0.0644531 14.4866 1.74142 17.1698 4.24402 18.5888" fill="#1A237E"/>
<path d="M17.3247 8.75909C18.0987 9.54601 18.6791 10.4618 19.0663 11.4165C20.0079 13.7385 19.8402 16.3958 18.5889 18.5888C19.221 18.2277 19.8144 17.7891 20.3433 17.2472C21.3365 16.254 22.0203 15.0801 22.3944 13.8288L17.3247 8.75909Z" fill="url(#paint0_linear_3617_12004)"/>
<path opacity="0.2" d="M18.5888 18.4598C18.2277 19.092 17.7891 19.6854 17.2472 20.2142C14.0222 23.4393 8.7978 23.4393 5.57279 20.2142C5.10305 19.7451 4.69158 19.221 4.34728 18.6534C4.30855 18.6276 4.26983 18.6147 4.2312 18.5889C4.59236 19.221 5.03096 19.8144 5.57279 20.3433C8.7978 23.5683 14.0222 23.5683 17.2472 20.3433C17.7891 19.8015 18.2277 19.2081 18.5888 18.5889C19.3112 17.3246 19.6725 15.9057 19.6595 14.4996C19.6467 15.8669 19.2983 17.2344 18.5888 18.4598Z" fill="#1A237E"/>
<path d="M20.3432 5.58568C19.8015 5.04394 19.208 4.60533 18.5888 4.24408C18.2276 3.61197 17.789 3.01857 17.2472 2.48968C14.0222 -0.735247 8.79778 -0.735247 5.57277 2.48968C5.03094 3.0315 4.59233 3.6249 4.23117 4.24408C1.74142 5.66312 0.0644531 8.3463 0.0644531 11.4165C0.0644531 14.4867 1.74142 17.17 4.24402 18.5889C4.60527 19.2211 5.04387 19.8145 5.58561 20.3434C8.81062 23.5684 14.0351 23.5684 17.2601 20.3434C17.8019 19.8016 18.2405 19.2081 18.6017 18.5889C19.2339 18.2278 19.8272 17.7892 20.3561 17.2474C23.5682 14.0353 23.5682 8.79784 20.3432 5.58568ZM16.5764 11.4166C16.5764 14.2675 14.2674 16.5766 11.4165 16.5766C8.56554 16.5766 6.25645 14.2675 6.25645 11.4166C6.25645 8.56569 8.56554 6.2566 11.4165 6.2566C14.2674 6.2566 16.5764 8.56569 16.5764 11.4166Z" fill="url(#paint1_radial_3617_12004)" fill-opacity="0.1"/>
</g>
<defs>
<filter id="filter0_d_3617_12004" x="3.25732" y="4.26947" width="27.4191" height="28.5055" filterUnits="userSpaceOnUse" color-interpolation-filters="sRGB">
<feFlood flood-opacity="0" result="BackgroundImageFix"/>
<feColorMatrix in="SourceAlpha" type="matrix" values="0 0 0 0 0 0 0 0 0 0 0 0 0 0 0 0 0 0 127 0" result="hardAlpha"/>
<feOffset dx="5" dy="4"/>
<feGaussianBlur stdDeviation="3"/>
<feColorMatrix type="matrix" values="0 0 0 0 0.768627 0 0 0 0 0.489469 0 0 0 0 0.0235294 0 0 0 0.2 0"/>
<feBlend mode="normal" in2="BackgroundImageFix" result="effect1_dropShadow_3617_12004"/>
<feBlend mode="normal" in="SourceGraphic" in2="effect1_dropShadow_3617_12004" result="shape"/>
</filter>
<linearGradient id="paint0_linear_3617_12004" x1="24.7417" y1="443.814" x2="483.321" y2="565.794" gradientUnits="userSpaceOnUse">
<stop stop-color="#BF360C" stop-opacity="0.2"/>
<stop offset="1" stop-color="#BF360C" stop-opacity="0"/>
</linearGradient>
<radialGradient id="paint1_radial_3617_12004" cx="0" cy="0" r="1" gradientUnits="userSpaceOnUse" gradientTransform="translate(292.372 304.722) scale(2253.42 2253.41)">
<stop stop-color="white"/>
<stop offset="1" stop-color="white" stop-opacity="0"/>
</radialGradient>
<clipPath id="clip0_3617_12004">
<rect width="22.8401" height="24" fill="white"/>
</clipPath>
</defs>
</svg>
