<svg width="24" height="24" viewBox="0 0 24 24" fill="none" xmlns="http://www.w3.org/2000/svg">
<path d="M15.1125 7.55625H15.1875L15.15 7.51875L17.775 4.89375V4.8375C15.5625 2.8875 12.5062 2.2125 9.67498 3.05625C6.84373 3.9 4.66873 6.15 3.88123 9C3.91873 8.98125 3.97498 8.9625 4.03123 8.9625C5.00623 8.325 6.16873 7.95 7.38748 7.95C7.79998 7.95 8.19373 7.9875 8.58748 8.0625C8.60623 8.04375 8.62498 8.04375 8.64373 8.04375C10.3312 6.1875 13.1812 5.9625 15.1312 7.55625H15.1125Z" fill="#EA4535"/>
<path d="M20.2688 8.96248C19.8375 7.36873 18.9375 5.92498 17.6813 4.81873L15 7.48123C16.125 8.39998 16.7813 9.78748 16.7438 11.2312V11.7C19.9125 11.7 19.9125 16.425 16.7438 16.425H11.9813V20.175H11.9625L11.9813 20.2125H16.7438C19.4813 20.2312 21.9 18.4687 22.7063 15.8812C23.5125 13.2937 22.5188 10.4812 20.2688 8.96248Z" fill="#557EBF"/>
<path d="M7.31245 20.2312H12.2437V16.4437H7.31245C6.9562 16.4437 6.6187 16.3687 6.29995 16.2375L3.44995 18.975V19.0125C4.57495 19.8187 5.92495 20.25 7.3312 20.25L7.31245 20.2312Z" fill="#36A852"/>
<path d="M7.53748 7.85626C4.74373 7.87501 2.26873 9.60001 1.36873 12.1313C0.468726 14.6813 1.36873 17.475 3.58123 19.125L6.50623 16.3313C4.89373 15.6375 4.51873 13.6125 5.75623 12.4313C6.99373 11.2313 9.09373 11.6063 9.82498 13.1438L12.75 10.35C11.5125 8.79376 9.58123 7.87501 7.53748 7.89376V7.85626Z" fill="#F9BC15"/>
</svg>
