<svg width="24" height="24" viewBox="0 0 24 24" fill="none" xmlns="http://www.w3.org/2000/svg">
<path fill-rule="evenodd" clip-rule="evenodd" d="M19.7183 18C17.2643 11.8716 14.3999 10.2564 14.3999 7.20001V3.60001H14.9999C15.1591 3.60001 15.3117 3.5368 15.4242 3.42428C15.5367 3.31175 15.5999 3.15914 15.5999 3.00001V1.80001C15.5999 1.64088 15.5367 1.48827 15.4242 1.37575C15.3117 1.26323 15.1591 1.20001 14.9999 1.20001H8.99994C8.84081 1.20001 8.6882 1.26323 8.57568 1.37575C8.46315 1.48827 8.39994 1.64088 8.39994 1.80001V3.00001C8.39994 3.15914 8.46315 3.31175 8.57568 3.42428C8.6882 3.5368 8.84081 3.60001 8.99994 3.60001H9.59994V7.20001C9.59994 10.2564 6.73554 11.8716 4.28154 18C3.50034 19.95 1.49394 22.8 11.9999 22.8C22.5059 22.8 20.4995 19.95 19.7183 18ZM17.7779 20.1012C16.9355 20.3532 15.2591 20.64 11.9999 20.64C8.74074 20.64 7.06434 20.3532 6.22194 20.1012C5.92314 20.0124 5.80674 19.6656 5.91234 19.3476C6.17634 18.5436 6.67434 17.154 7.60554 15.6024C9.88074 11.8116 12.2411 16.1988 14.2055 16.1988C16.1699 16.1988 15.6311 14.3256 16.3943 15.6024C17.0962 16.784 17.6642 18.0401 18.0875 19.3476C18.1931 19.6656 18.0767 20.0112 17.7779 20.1012Z" fill="black"/>
</svg>
